<?xml version="1.0" encoding="UTF-8"?> <!-- Creator: CorelDRAW 2017 --> <svg xmlns="http://www.w3.org/2000/svg" xmlns:xlink="http://www.w3.org/1999/xlink" xml:space="preserve" width="62.2845mm" height="20.6938mm" style="shape-rendering:geometricPrecision; text-rendering:geometricPrecision; image-rendering:optimizeQuality; fill-rule:evenodd; clip-rule:evenodd" viewBox="0 0 2415 802"> <defs> <style type="text/css"> <![CDATA[ .str0 {stroke:#FEFEFE;stroke-width:29.0757} .str1 {stroke:#FEFEFE;stroke-width:7.75352} .str2 {stroke:#009846;stroke-width:2.95409} .fil0 {fill:#FEFEFE;fill-rule:nonzero} .fil1 {fill:#009846;fill-rule:nonzero} ]]> </style> </defs> <g id="Слой_x0020_1"> <metadata id="CorelCorpID_0Corel-Layer"></metadata> <path class="fil0 str0" d="M1207 15c89,0 176,3 259,9l-12 9c-80,-5 -162,-8 -247,-8 -328,0 -624,43 -839,112 -213,68 -345,162 -345,266 0,103 132,197 345,266 47,15 97,29 151,41l-10 7c-51,-12 -99,-25 -144,-40 -217,-70 -351,-167 -351,-275 0,-108 134,-205 351,-275 215,-69 513,-112 842,-112zm697 73c51,12 99,25 144,40 217,70 351,167 351,275 0,108 -134,205 -351,275 -215,69 -513,112 -842,112 -89,0 -176,-3 -259,-9l12 -9c80,5 162,8 247,8 328,0 624,-43 839,-112 213,-68 345,-162 345,-266 0,-103 -132,-197 -345,-266 -47,-15 -97,-29 -151,-41l10 -7z"></path> <path class="fil0 str1" d="M517 176l0 22c-48,3 -105,32 -105,113 0,78 52,106 104,109l0 23 31 0 0 -23c52,-3 104,-33 104,-110 0,-78 -52,-109 -104,-111l0 -22 -30 0zm0 221c-36,-4 -71,-29 -71,-88 0,-64 39,-87 71,-88l0 176zm30 -176c36,2 71,25 71,88 0,61 -36,85 -71,88l0 -176zm265 134l26 78 34 0 -84 -247 -38 0 -84 247 33 0 26 -78 88 0zm-81 -25l24 -71c5,-15 9,-30 12,-45l1 0c4,14 7,29 13,45l24 71 -74 0zm178 103l32 0 0 -99c7,2 16,2 26,2 31,0 59,-9 76,-27 12,-13 19,-30 19,-53 0,-22 -8,-40 -22,-52 -15,-13 -38,-21 -69,-21 -26,0 -46,2 -61,5l0 244zm32 -221c5,-1 16,-3 30,-3 35,0 58,16 58,48 0,34 -23,53 -62,53 -11,0 -19,-1 -26,-3l0 -96zm163 220c11,1 27,3 49,3 40,0 68,-7 85,-23 12,-12 21,-28 21,-49 0,-37 -27,-56 -51,-62l0 -1c26,-10 42,-30 42,-54 0,-19 -8,-34 -21,-44 -15,-12 -36,-18 -68,-18 -22,0 -44,2 -58,5l0 243zm32 -221c5,-1 14,-2 28,-2 32,0 54,11 54,40 0,24 -20,41 -54,41l-29 0 0 -80zm0 104l26 0c35,0 64,14 64,48 0,36 -30,48 -63,48 -11,0 -21,0 -27,-1l0 -94zm294 41l26 78 34 0 -84 -247 -38 0 -84 247 33 0 26 -78 88 0zm-81 -25l24 -71c5,-15 9,-30 12,-45l1 0c4,14 7,29 13,45l24 71 -74 0zm209 103l32 0 0 -220 76 0 0 -27 -183 0 0 27 75 0 0 220zm263 -142l-96 0 0 -78 102 0 0 -27 -133 0 0 247 139 0 0 -27 -107 0 0 -89 96 0 0 -26zm52 142l32 0 0 -99c7,2 16,2 26,2 31,0 59,-9 76,-27 12,-13 19,-30 19,-53 0,-22 -8,-40 -22,-52 -15,-13 -38,-21 -69,-21 -26,0 -46,2 -61,5l0 244zm32 -221c5,-1 16,-3 30,-3 35,0 58,16 58,48 0,34 -23,53 -62,53 -11,0 -19,-1 -26,-3l0 -96z"></path> <path class="fil1 str2" d="M629 573c0,8 -2,17 -7,24 -5,8 -12,14 -21,19 -9,5 -19,7 -29,7 -10,0 -20,-2 -29,-7 -9,-5 -16,-11 -21,-19 -5,-8 -7,-16 -7,-25 0,-9 2,-17 7,-26 5,-8 12,-15 21,-20 9,-5 19,-7 28,-7 10,0 20,2 29,7 9,5 16,12 21,20 5,8 7,17 7,26zm-22 0c0,-7 -3,-14 -8,-19 -7,-8 -16,-12 -27,-12 -10,0 -18,3 -25,10 -7,6 -10,14 -10,22 0,7 3,13 10,19 7,6 15,9 25,9 10,0 18,-3 25,-9 7,-6 10,-12 10,-19z"></path> <path class="fil1 str2" d="M809 526l0 7c4,-3 8,-6 13,-8 5,-2 10,-3 16,-3 13,0 23,4 31,12 6,6 9,15 9,25l0 41c5,0 9,1 12,3 2,2 3,5 3,8 0,3 -1,6 -3,8 -2,2 -6,3 -12,3l-22 0c-5,0 -9,-1 -12,-3 -2,-2 -3,-5 -3,-8 0,-3 1,-6 3,-8 2,-2 6,-3 12,-3l0 -41c0,-5 -1,-8 -4,-11 -3,-3 -8,-4 -15,-4 -5,0 -9,1 -13,3 -4,2 -9,6 -14,13l0 41c5,0 9,1 10,2 3,3 5,6 5,9 0,3 -1,6 -3,8 -2,2 -6,3 -12,3l-22 0c-5,0 -9,-1 -12,-3 -2,-2 -3,-5 -3,-8 0,-3 1,-6 4,-9 1,-1 5,-2 10,-2l0 -53c-5,0 -9,-1 -12,-3 -2,-2 -3,-5 -3,-8 0,-3 1,-6 3,-8 2,-2 6,-3 12,-3l22 0z"></path> <path class="fil1 str2" d="M1103 485l0 117 26 0c5,0 9,1 12,3 2,2 3,5 3,8 0,3 -1,6 -3,8 -2,2 -6,3 -12,3l-74 0c-5,0 -9,-1 -12,-3 -2,-2 -3,-5 -3,-8 0,-3 1,-6 3,-8 2,-2 6,-3 12,-3l26 0 0 -95 -18 0c-5,0 -9,-1 -12,-3 -2,-2 -3,-5 -3,-8 0,-3 1,-6 3,-8 2,-2 6,-3 12,-3l40 0z"></path> <path class="fil1 str2" d="M1360 485l0 23 -26 0 0 -23 26 0zm3 42l0 75 26 0c5,0 9,1 12,3 2,2 3,5 3,8 0,3 -1,6 -3,8 -2,2 -6,3 -12,3l-74 0c-5,0 -9,-1 -12,-3 -2,-2 -3,-5 -3,-8 0,-3 1,-6 3,-8 2,-2 6,-3 12,-3l26 0 0 -53 -18 0c-5,0 -9,-1 -12,-3 -2,-2 -3,-5 -3,-8 0,-3 1,-6 3,-8 2,-2 6,-3 12,-3l40 0z"></path> <path class="fil1 str2" d="M1589 526l0 7c4,-3 8,-6 13,-8 5,-2 10,-3 16,-3 13,0 23,4 31,12 6,6 9,15 9,25l0 41c5,0 9,1 12,3 2,2 3,5 3,8 0,3 -1,6 -3,8 -2,2 -6,3 -12,3l-22 0c-5,0 -9,-1 -12,-3 -2,-2 -3,-5 -3,-8 0,-3 1,-6 3,-8 2,-2 6,-3 12,-3l0 -41c0,-5 -1,-8 -4,-11 -3,-3 -8,-4 -15,-4 -5,0 -9,1 -13,3 -4,2 -9,6 -14,13l0 41c5,0 9,1 10,2 3,3 5,6 5,9 0,3 -1,6 -3,8 -2,2 -6,3 -12,3l-22 0c-5,0 -9,-1 -12,-3 -2,-2 -3,-5 -3,-8 0,-3 1,-6 4,-9 1,-1 5,-2 10,-2l0 -53c-5,0 -9,-1 -12,-3 -2,-2 -3,-5 -3,-8 0,-3 1,-6 3,-8 2,-2 6,-3 12,-3l22 0z"></path> <path class="fil1 str2" d="M1907 579l-90 0c2,6 6,10 12,14 6,4 14,5 24,5 8,0 19,-2 32,-5 6,-1 9,-2 12,-2 3,0 5,1 7,3 2,2 3,5 3,8 0,3 -1,5 -3,7 -3,3 -10,5 -21,8 -11,2 -22,4 -32,4 -18,0 -32,-5 -42,-15 -11,-10 -16,-22 -16,-37 0,-15 6,-28 17,-38 11,-10 24,-14 39,-14 9,0 17,2 25,5 7,3 13,7 17,10 5,5 9,12 13,20 2,5 3,12 3,19l0 9zm-24 -22c-3,-6 -8,-11 -13,-14 -5,-3 -12,-5 -19,-5 -7,0 -14,2 -19,5 -5,3 -10,8 -13,14l65 0z"></path> </g> </svg> 