<svg xmlns="http://www.w3.org/2000/svg" version="1.1" xmlns:xlink="http://www.w3.org/1999/xlink" xmlns:svgjs="http://svgjs.dev/svgjs" width="1440" height="560" preserveAspectRatio="none" viewBox="0 0 1440 560"><g mask="url(&quot;#SvgjsMask1000&quot;)" fill="none"><rect width="1440" height="560" x="0" y="0" fill="#0e2a47"></rect><path d="M-93.96 347.4L-93.96 347.4" stroke="#132e65" stroke-width="1.5"></path><path d="M-93.96 347.4L94.28 350.1" stroke="#132e65" stroke-width="1.5"></path><path d="M-53.11 556.13L-53.11 556.13" stroke="#132e65" stroke-width="1.5"></path><path d="M-53.11 556.13L-88.7 637.52" stroke="#132e65" stroke-width="1.5"></path><path d="M-53.11 556.13L56.98 638.28" stroke="#132e65" stroke-width="1.5"></path><path d="M-88.7 637.52L-88.7 637.52" stroke="#132e65" stroke-width="1.5"></path><path d="M-88.7 637.52L56.98 638.28" stroke="#132e65" stroke-width="1.5"></path><path d="M-88.7 637.52L102.69 535.82" stroke="#132e65" stroke-width="1.5"></path><path d="M-88.7 637.52L-93.96 347.4" stroke="#132e65" stroke-width="1.5"></path><path d="M-88.7 637.52L94.28 350.1" stroke="#132e65" stroke-width="1.5"></path><path d="M94.28 350.1L94.28 350.1" stroke="#132e65" stroke-width="1.5"></path><path d="M94.28 350.1L224.04 352.38" stroke="#132e65" stroke-width="1.5"></path><path d="M94.28 350.1L102.69 535.82" stroke="#132e65" stroke-width="1.5"></path><path d="M102.69 535.82L102.69 535.82" stroke="#132e65" stroke-width="1.5"></path><path d="M102.69 535.82L56.98 638.28" stroke="#132e65" stroke-width="1.5"></path><path d="M102.69 535.82L243.93 528.9" stroke="#132e65" stroke-width="1.5"></path><path d="M56.98 638.28L56.98 638.28" stroke="#132e65" stroke-width="1.5"></path><path d="M224.04 352.38L224.04 352.38" stroke="#132e65" stroke-width="1.5"></path><path d="M224.04 352.38L366.35 345.79" stroke="#132e65" stroke-width="1.5"></path><path d="M224.04 352.38L243.93 528.9" stroke="#132e65" stroke-width="1.5"></path><path d="M224.04 352.38L351.67 524.59" stroke="#132e65" stroke-width="1.5"></path><path d="M243.93 528.9L243.93 528.9" stroke="#132e65" stroke-width="1.5"></path><path d="M243.93 528.9L351.67 524.59" stroke="#132e65" stroke-width="1.5"></path><path d="M243.93 528.9L355.2 691.09" stroke="#132e65" stroke-width="1.5"></path><path d="M366.35 345.79L366.35 345.79" stroke="#132e65" stroke-width="1.5"></path><path d="M366.35 345.79L499.9 338.16" stroke="#132e65" stroke-width="1.5"></path><path d="M366.35 345.79L351.67 524.59" stroke="#132e65" stroke-width="1.5"></path><path d="M366.35 345.79L243.93 528.9" stroke="#132e65" stroke-width="1.5"></path><path d="M366.35 345.79L531.74 520.06" stroke="#132e65" stroke-width="1.5"></path><path d="M351.67 524.59L351.67 524.59" stroke="#132e65" stroke-width="1.5"></path><path d="M351.67 524.59L355.2 691.09" stroke="#132e65" stroke-width="1.5"></path><path d="M351.67 524.59L531.74 520.06" stroke="#132e65" stroke-width="1.5"></path><path d="M351.67 524.59L499.9 338.16" stroke="#132e65" stroke-width="1.5"></path><path d="M355.2 691.09L355.2 691.09" stroke="#132e65" stroke-width="1.5"></path><path d="M355.2 691.09L540.62 682.71" stroke="#132e65" stroke-width="1.5"></path><path d="M355.2 691.09L531.74 520.06" stroke="#132e65" stroke-width="1.5"></path><path d="M499.9 338.16L499.9 338.16" stroke="#132e65" stroke-width="1.5"></path><path d="M499.9 338.16L531.74 520.06" stroke="#132e65" stroke-width="1.5"></path><path d="M499.9 338.16L707.26 233.65" stroke="#132e65" stroke-width="1.5"></path><path d="M531.74 520.06L531.74 520.06" stroke="#132e65" stroke-width="1.5"></path><path d="M531.74 520.06L540.62 682.71" stroke="#132e65" stroke-width="1.5"></path><path d="M531.74 520.06L702.74 489.55" stroke="#132e65" stroke-width="1.5"></path><path d="M531.74 520.06L702 650.85" stroke="#132e65" stroke-width="1.5"></path><path d="M540.62 682.71L540.62 682.71" stroke="#132e65" stroke-width="1.5"></path><path d="M540.62 682.71L702 650.85" stroke="#132e65" stroke-width="1.5"></path><path d="M707.26 233.65L707.26 233.65" stroke="#132e65" stroke-width="1.5"></path><path d="M707.26 233.65L805.36 261.79" stroke="#132e65" stroke-width="1.5"></path><path d="M707.26 233.65L829.06 362.3" stroke="#132e65" stroke-width="1.5"></path><path d="M707.26 233.65L702.74 489.55" stroke="#132e65" stroke-width="1.5"></path><path d="M707.26 233.65L991.26 218.35" stroke="#132e65" stroke-width="1.5"></path><path d="M702.74 489.55L702.74 489.55" stroke="#132e65" stroke-width="1.5"></path><path d="M702.74 489.55L858.42 527.72" stroke="#132e65" stroke-width="1.5"></path><path d="M702.74 489.55L702 650.85" stroke="#132e65" stroke-width="1.5"></path><path d="M702.74 489.55L829.06 362.3" stroke="#132e65" stroke-width="1.5"></path><path d="M702.74 489.55L856.03 684.34" stroke="#132e65" stroke-width="1.5"></path><path d="M702.74 489.55L805.36 261.79" stroke="#132e65" stroke-width="1.5"></path><path d="M702 650.85L702 650.85" stroke="#132e65" stroke-width="1.5"></path><path d="M702 650.85L856.03 684.34" stroke="#132e65" stroke-width="1.5"></path><path d="M805.36 261.79L805.36 261.79" stroke="#132e65" stroke-width="1.5"></path><path d="M805.36 261.79L829.06 362.3" stroke="#132e65" stroke-width="1.5"></path><path d="M829.06 362.3L829.06 362.3" stroke="#132e65" stroke-width="1.5"></path><path d="M829.06 362.3L858.42 527.72" stroke="#132e65" stroke-width="1.5"></path><path d="M829.06 362.3L991.26 218.35" stroke="#132e65" stroke-width="1.5"></path><path d="M829.06 362.3L1004.86 552.76" stroke="#132e65" stroke-width="1.5"></path><path d="M858.42 527.72L858.42 527.72" stroke="#132e65" stroke-width="1.5"></path><path d="M858.42 527.72L1004.86 552.76" stroke="#132e65" stroke-width="1.5"></path><path d="M858.42 527.72L938.56 660.11" stroke="#132e65" stroke-width="1.5"></path><path d="M856.03 684.34L856.03 684.34" stroke="#132e65" stroke-width="1.5"></path><path d="M856.03 684.34L938.56 660.11" stroke="#132e65" stroke-width="1.5"></path><path d="M856.03 684.34L858.42 527.72" stroke="#132e65" stroke-width="1.5"></path><path d="M856.03 684.34L1004.86 552.76" stroke="#132e65" stroke-width="1.5"></path><path d="M961.3 -42.69L961.3 -42.69" stroke="#132e65" stroke-width="1.5"></path><path d="M961.3 -42.69L965.69 79.43" stroke="#132e65" stroke-width="1.5"></path><path d="M961.3 -42.69L1103.37 -56.75" stroke="#132e65" stroke-width="1.5"></path><path d="M965.69 79.43L965.69 79.43" stroke="#132e65" stroke-width="1.5"></path><path d="M965.69 79.43L1088.83 91.25" stroke="#132e65" stroke-width="1.5"></path><path d="M965.69 79.43L991.26 218.35" stroke="#132e65" stroke-width="1.5"></path><path d="M991.26 218.35L991.26 218.35" stroke="#132e65" stroke-width="1.5"></path><path d="M991.26 218.35L1097.17 244.94" stroke="#132e65" stroke-width="1.5"></path><path d="M991.26 218.35L1088.83 91.25" stroke="#132e65" stroke-width="1.5"></path><path d="M991.26 218.35L1122.44 353.9" stroke="#132e65" stroke-width="1.5"></path><path d="M991.26 218.35L805.36 261.79" stroke="#132e65" stroke-width="1.5"></path><path d="M1004.86 552.76L1004.86 552.76" stroke="#132e65" stroke-width="1.5"></path><path d="M1004.86 552.76L1109.65 504.18" stroke="#132e65" stroke-width="1.5"></path><path d="M1004.86 552.76L938.56 660.11" stroke="#132e65" stroke-width="1.5"></path><path d="M938.56 660.11L938.56 660.11" stroke="#132e65" stroke-width="1.5"></path><path d="M1103.37 -56.75L1103.37 -56.75" stroke="#132e65" stroke-width="1.5"></path><path d="M1103.37 -56.75L1088.83 91.25" stroke="#132e65" stroke-width="1.5"></path><path d="M1103.37 -56.75L1267.27 -93.81" stroke="#132e65" stroke-width="1.5"></path><path d="M1103.37 -56.75L965.69 79.43" stroke="#132e65" stroke-width="1.5"></path><path d="M1103.37 -56.75L1256.15 91.33" stroke="#132e65" stroke-width="1.5"></path><path d="M1088.83 91.25L1088.83 91.25" stroke="#132e65" stroke-width="1.5"></path><path d="M1097.17 244.94L1097.17 244.94" stroke="#132e65" stroke-width="1.5"></path><path d="M1097.17 244.94L1122.44 353.9" stroke="#132e65" stroke-width="1.5"></path><path d="M1097.17 244.94L1088.83 91.25" stroke="#132e65" stroke-width="1.5"></path><path d="M1097.17 244.94L1273.63 214.17" stroke="#132e65" stroke-width="1.5"></path><path d="M1097.17 244.94L965.69 79.43" stroke="#132e65" stroke-width="1.5"></path><path d="M1122.44 353.9L1122.44 353.9" stroke="#132e65" stroke-width="1.5"></path><path d="M1122.44 353.9L1109.65 504.18" stroke="#132e65" stroke-width="1.5"></path><path d="M1122.44 353.9L1292.07 346.61" stroke="#132e65" stroke-width="1.5"></path><path d="M1122.44 353.9L1273.63 214.17" stroke="#132e65" stroke-width="1.5"></path><path d="M1122.44 353.9L1238.72 550.64" stroke="#132e65" stroke-width="1.5"></path><path d="M1109.65 504.18L1109.65 504.18" stroke="#132e65" stroke-width="1.5"></path><path d="M1109.65 504.18L1238.72 550.64" stroke="#132e65" stroke-width="1.5"></path><path d="M1111.14 691.53L1111.14 691.53" stroke="#132e65" stroke-width="1.5"></path><path d="M1111.14 691.53L1004.86 552.76" stroke="#132e65" stroke-width="1.5"></path><path d="M1111.14 691.53L938.56 660.11" stroke="#132e65" stroke-width="1.5"></path><path d="M1267.27 -93.81L1267.27 -93.81" stroke="#132e65" stroke-width="1.5"></path><path d="M1267.27 -93.81L1256.15 91.33" stroke="#132e65" stroke-width="1.5"></path><path d="M1267.27 -93.81L1088.83 91.25" stroke="#132e65" stroke-width="1.5"></path><path d="M1256.15 91.33L1256.15 91.33" stroke="#132e65" stroke-width="1.5"></path><path d="M1256.15 91.33L1273.63 214.17" stroke="#132e65" stroke-width="1.5"></path><path d="M1256.15 91.33L1088.83 91.25" stroke="#132e65" stroke-width="1.5"></path><path d="M1256.15 91.33L1440.71 100.26" stroke="#132e65" stroke-width="1.5"></path><path d="M1273.63 214.17L1273.63 214.17" stroke="#132e65" stroke-width="1.5"></path><path d="M1273.63 214.17L1292.07 346.61" stroke="#132e65" stroke-width="1.5"></path><path d="M1292.07 346.61L1292.07 346.61" stroke="#132e65" stroke-width="1.5"></path><path d="M1292.07 346.61L1402.45 369.98" stroke="#132e65" stroke-width="1.5"></path><path d="M1292.07 346.61L1419.74 190.41" stroke="#132e65" stroke-width="1.5"></path><path d="M1292.07 346.61L1238.72 550.64" stroke="#132e65" stroke-width="1.5"></path><path d="M1292.07 346.61L1097.17 244.94" stroke="#132e65" stroke-width="1.5"></path><path d="M1238.72 550.64L1238.72 550.64" stroke="#132e65" stroke-width="1.5"></path><path d="M1238.72 550.64L1287.42 667.35" stroke="#132e65" stroke-width="1.5"></path><path d="M1287.42 667.35L1287.42 667.35" stroke="#132e65" stroke-width="1.5"></path><path d="M1287.42 667.35L1402.34 654.19" stroke="#132e65" stroke-width="1.5"></path><path d="M1287.42 667.35L1111.14 691.53" stroke="#132e65" stroke-width="1.5"></path><path d="M1440.71 100.26L1440.71 100.26" stroke="#132e65" stroke-width="1.5"></path><path d="M1440.71 100.26L1419.74 190.41" stroke="#132e65" stroke-width="1.5"></path><path d="M1440.71 100.26L1569.8 56.76" stroke="#132e65" stroke-width="1.5"></path><path d="M1440.71 100.26L1561.95 200.62" stroke="#132e65" stroke-width="1.5"></path><path d="M1419.74 190.41L1419.74 190.41" stroke="#132e65" stroke-width="1.5"></path><path d="M1419.74 190.41L1561.95 200.62" stroke="#132e65" stroke-width="1.5"></path><path d="M1419.74 190.41L1273.63 214.17" stroke="#132e65" stroke-width="1.5"></path><path d="M1419.74 190.41L1402.45 369.98" stroke="#132e65" stroke-width="1.5"></path><path d="M1402.45 369.98L1402.45 369.98" stroke="#132e65" stroke-width="1.5"></path><path d="M1402.45 369.98L1453.1 521.07" stroke="#132e65" stroke-width="1.5"></path><path d="M1402.45 369.98L1579.68 364.53" stroke="#132e65" stroke-width="1.5"></path><path d="M1453.1 521.07L1453.1 521.07" stroke="#132e65" stroke-width="1.5"></path><path d="M1453.1 521.07L1579.29 560.03" stroke="#132e65" stroke-width="1.5"></path><path d="M1453.1 521.07L1402.34 654.19" stroke="#132e65" stroke-width="1.5"></path><path d="M1453.1 521.07L1539.3 654.16" stroke="#132e65" stroke-width="1.5"></path><path d="M1453.1 521.07L1579.68 364.53" stroke="#132e65" stroke-width="1.5"></path><path d="M1453.1 521.07L1238.72 550.64" stroke="#132e65" stroke-width="1.5"></path><path d="M1402.34 654.19L1402.34 654.19" stroke="#132e65" stroke-width="1.5"></path><path d="M1402.34 654.19L1539.3 654.16" stroke="#132e65" stroke-width="1.5"></path><path d="M1402.34 654.19L1238.72 550.64" stroke="#132e65" stroke-width="1.5"></path><path d="M1402.34 654.19L1579.29 560.03" stroke="#132e65" stroke-width="1.5"></path><path d="M1402.34 654.19L1402.45 369.98" stroke="#132e65" stroke-width="1.5"></path><path d="M1603.12 -80.07L1603.12 -80.07" stroke="#132e65" stroke-width="1.5"></path><path d="M1603.12 -80.07L1569.8 56.76" stroke="#132e65" stroke-width="1.5"></path><path d="M1603.12 -80.07L1440.71 100.26" stroke="#132e65" stroke-width="1.5"></path><path d="M1603.12 -80.07L1561.95 200.62" stroke="#132e65" stroke-width="1.5"></path><path d="M1569.8 56.76L1569.8 56.76" stroke="#132e65" stroke-width="1.5"></path><path d="M1569.8 56.76L1561.95 200.62" stroke="#132e65" stroke-width="1.5"></path><path d="M1569.8 56.76L1419.74 190.41" stroke="#132e65" stroke-width="1.5"></path><path d="M1569.8 56.76L1579.68 364.53" stroke="#132e65" stroke-width="1.5"></path><path d="M1569.8 56.76L1256.15 91.33" stroke="#132e65" stroke-width="1.5"></path><path d="M1561.95 200.62L1561.95 200.62" stroke="#132e65" stroke-width="1.5"></path><path d="M1561.95 200.62L1579.68 364.53" stroke="#132e65" stroke-width="1.5"></path><path d="M1579.68 364.53L1579.68 364.53" stroke="#132e65" stroke-width="1.5"></path><path d="M1579.29 560.03L1579.29 560.03" stroke="#132e65" stroke-width="1.5"></path><path d="M1579.29 560.03L1539.3 654.16" stroke="#132e65" stroke-width="1.5"></path><path d="M1579.29 560.03L1579.68 364.53" stroke="#132e65" stroke-width="1.5"></path><path d="M1539.3 654.16L1539.3 654.16" stroke="#132e65" stroke-width="1.5"></path><path d="M1539.3 654.16L1287.42 667.35" stroke="#132e65" stroke-width="1.5"></path><path d="M1539.3 654.16L1579.68 364.53" stroke="#132e65" stroke-width="1.5"></path><circle r="5" cx="-93.96" cy="347.4" fill="#132e65"></circle><circle r="5" cx="-53.11" cy="556.13" fill="#132e65"></circle><circle r="5" cx="-88.7" cy="637.52" fill="#132e65"></circle><circle r="5" cx="94.28" cy="350.1" fill="#132e65"></circle><circle r="5" cx="102.69" cy="535.82" fill="#132e65"></circle><circle r="5" cx="56.98" cy="638.28" fill="#132e65"></circle><circle r="5" cx="224.04" cy="352.38" fill="#132e65"></circle><circle r="5" cx="243.93" cy="528.9" fill="#132e65"></circle><circle r="5" cx="366.35" cy="345.79" fill="#132e65"></circle><circle r="5" cx="351.67" cy="524.59" fill="#132e65"></circle><circle r="5" cx="355.2" cy="691.09" fill="#132e65"></circle><circle r="5" cx="499.9" cy="338.16" fill="#132e65"></circle><circle r="5" cx="531.74" cy="520.06" fill="#132e65"></circle><circle r="5" cx="540.62" cy="682.71" fill="#132e65"></circle><circle r="5" cx="707.26" cy="233.65" fill="#132e65"></circle><circle r="5" cx="702.74" cy="489.55" fill="#132e65"></circle><circle r="5" cx="702" cy="650.85" fill="#132e65"></circle><circle r="5" cx="805.36" cy="261.79" fill="#132e65"></circle><circle r="5" cx="829.06" cy="362.3" fill="#132e65"></circle><circle r="5" cx="858.42" cy="527.72" fill="#132e65"></circle><circle r="5" cx="856.03" cy="684.34" fill="#132e65"></circle><circle r="5" cx="961.3" cy="-42.69" fill="#132e65"></circle><circle r="5" cx="965.69" cy="79.43" fill="#132e65"></circle><circle r="5" cx="991.26" cy="218.35" fill="#132e65"></circle><circle r="5" cx="1004.86" cy="552.76" fill="#132e65"></circle><circle r="5" cx="938.56" cy="660.11" fill="#132e65"></circle><circle r="5" cx="1103.37" cy="-56.75" fill="#132e65"></circle><circle r="5" cx="1088.83" cy="91.25" fill="#132e65"></circle><circle r="5" cx="1097.17" cy="244.94" fill="#132e65"></circle><circle r="5" cx="1122.44" cy="353.9" fill="#132e65"></circle><circle r="5" cx="1109.65" cy="504.18" fill="#132e65"></circle><circle r="5" cx="1111.14" cy="691.53" fill="#132e65"></circle><circle r="5" cx="1267.27" cy="-93.81" fill="#132e65"></circle><circle r="5" cx="1256.15" cy="91.33" fill="#132e65"></circle><circle r="5" cx="1273.63" cy="214.17" fill="#132e65"></circle><circle r="5" cx="1292.07" cy="346.61" fill="#132e65"></circle><circle r="5" cx="1238.72" cy="550.64" fill="#132e65"></circle><circle r="5" cx="1287.42" cy="667.35" fill="#132e65"></circle><circle r="5" cx="1440.71" cy="100.26" fill="#132e65"></circle><circle r="5" cx="1419.74" cy="190.41" fill="#132e65"></circle><circle r="5" cx="1402.45" cy="369.98" fill="#132e65"></circle><circle r="5" cx="1453.1" cy="521.07" fill="#132e65"></circle><circle r="5" cx="1402.34" cy="654.19" fill="#132e65"></circle><circle r="5" cx="1603.12" cy="-80.07" fill="#132e65"></circle><circle r="5" cx="1569.8" cy="56.76" fill="#132e65"></circle><circle r="5" cx="1561.95" cy="200.62" fill="#132e65"></circle><circle r="5" cx="1579.68" cy="364.53" fill="#132e65"></circle><circle r="5" cx="1579.29" cy="560.03" fill="#132e65"></circle><circle r="5" cx="1539.3" cy="654.16" fill="#132e65"></circle><path d="M522.81 688.05L522.81 688.05" stroke="hsl(228.5, 77.2%, 51.5%)" stroke-width="1.5"></path><path d="M522.81 688.05L391.64 677.62" stroke="hsl(228.5, 77.2%, 51.5%)" stroke-width="1.5"></path><path d="M522.81 688.05L558.11 547.08" stroke="hsl(228.5, 77.2%, 51.5%)" stroke-width="1.5"></path><path d="M522.81 688.05L666.73 641.86" stroke="hsl(228.5, 77.2%, 51.5%)" stroke-width="1.5"></path><path d="M522.81 688.05L665.89 515.77" stroke="hsl(228.5, 77.2%, 51.5%)" stroke-width="1.5"></path><path d="M665.89 515.77L665.89 515.77" stroke="hsl(228.5, 77.2%, 51.5%)" stroke-width="1.5"></path><path d="M665.89 515.77L675.97 405.31" stroke="hsl(228.5, 77.2%, 51.5%)" stroke-width="1.5"></path><path d="M665.89 515.77L558.11 547.08" stroke="hsl(228.5, 77.2%, 51.5%)" stroke-width="1.5"></path><path d="M822.17 690.18L822.17 690.18" stroke="hsl(228.5, 77.2%, 51.5%)" stroke-width="1.5"></path><path d="M822.17 690.18L950.5 658.46" stroke="hsl(228.5, 77.2%, 51.5%)" stroke-width="1.5"></path><path d="M822.17 690.18L666.73 641.86" stroke="hsl(228.5, 77.2%, 51.5%)" stroke-width="1.5"></path><path d="M822.17 690.18L820.49 516.02" stroke="hsl(228.5, 77.2%, 51.5%)" stroke-width="1.5"></path><path d="M954.01 380.54L954.01 380.54" stroke="hsl(228.5, 77.2%, 51.5%)" stroke-width="1.5"></path><path d="M954.01 380.54L960.88 517.22" stroke="hsl(228.5, 77.2%, 51.5%)" stroke-width="1.5"></path><path d="M954.01 380.54L814.72 355.67" stroke="hsl(228.5, 77.2%, 51.5%)" stroke-width="1.5"></path><path d="M954.01 380.54L1114.77 352.01" stroke="hsl(228.5, 77.2%, 51.5%)" stroke-width="1.5"></path><path d="M954.01 380.54L820.49 516.02" stroke="hsl(228.5, 77.2%, 51.5%)" stroke-width="1.5"></path><path d="M1152.12 61.33L1152.12 61.33" stroke="hsl(228.5, 77.2%, 51.5%)" stroke-width="1.5"></path><path d="M1152.12 61.33L1241.08 39.55" stroke="hsl(228.5, 77.2%, 51.5%)" stroke-width="1.5"></path><path d="M1152.12 61.33L1267.37 -57.64" stroke="hsl(228.5, 77.2%, 51.5%)" stroke-width="1.5"></path><path d="M1152.12 61.33L1285.79 237.95" stroke="hsl(228.5, 77.2%, 51.5%)" stroke-width="1.5"></path><path d="M1152.12 61.33L1424.03 108.61" stroke="hsl(228.5, 77.2%, 51.5%)" stroke-width="1.5"></path><path d="M1152.12 61.33L1114.77 352.01" stroke="hsl(228.5, 77.2%, 51.5%)" stroke-width="1.5"></path><path d="M1114.77 352.01L1114.77 352.01" stroke="hsl(228.5, 77.2%, 51.5%)" stroke-width="1.5"></path><path d="M1114.77 352.01L1258.61 397.14" stroke="hsl(228.5, 77.2%, 51.5%)" stroke-width="1.5"></path><path d="M1114.77 352.01L1108.36 539.01" stroke="hsl(228.5, 77.2%, 51.5%)" stroke-width="1.5"></path><path d="M1114.77 352.01L1285.79 237.95" stroke="hsl(228.5, 77.2%, 51.5%)" stroke-width="1.5"></path><path d="M1114.77 352.01L1280.05 499.44" stroke="hsl(228.5, 77.2%, 51.5%)" stroke-width="1.5"></path><path d="M1280.05 499.44L1280.05 499.44" stroke="hsl(228.5, 77.2%, 51.5%)" stroke-width="1.5"></path><path d="M1280.05 499.44L1258.61 397.14" stroke="hsl(228.5, 77.2%, 51.5%)" stroke-width="1.5"></path><path d="M1280.05 499.44L1108.36 539.01" stroke="hsl(228.5, 77.2%, 51.5%)" stroke-width="1.5"></path><path d="M1280.05 499.44L1458.91 540.53" stroke="hsl(228.5, 77.2%, 51.5%)" stroke-width="1.5"></path><path d="M1280.05 499.44L1241.12 691.49" stroke="hsl(228.5, 77.2%, 51.5%)" stroke-width="1.5"></path><path d="M1280.05 499.44L1456.9 376.82" stroke="hsl(228.5, 77.2%, 51.5%)" stroke-width="1.5"></path><path d="M1559.43 399.2L1559.43 399.2" stroke="hsl(228.5, 77.2%, 51.5%)" stroke-width="1.5"></path><path d="M1559.43 399.2L1456.9 376.82" stroke="hsl(228.5, 77.2%, 51.5%)" stroke-width="1.5"></path><path d="M1559.43 399.2L1604.81 535.86" stroke="hsl(228.5, 77.2%, 51.5%)" stroke-width="1.5"></path><path d="M1559.43 399.2L1458.91 540.53" stroke="hsl(228.5, 77.2%, 51.5%)" stroke-width="1.5"></path><path d="M1559.43 399.2L1548.77 224.82" stroke="hsl(228.5, 77.2%, 51.5%)" stroke-width="1.5"></path><path d="M1559.43 399.2L1452.76 197.45" stroke="hsl(228.5, 77.2%, 51.5%)" stroke-width="1.5"></path><path d="M-95.81 651.77L-95.81 651.77" stroke="hsl(228.5, 77.2%, 51.5%)" stroke-width="1.5"></path><path d="M-95.81 651.77L55 526.35" stroke="hsl(228.5, 77.2%, 51.5%)" stroke-width="1.5"></path><path d="M-95.81 651.77L105.19 641.23" stroke="hsl(228.5, 77.2%, 51.5%)" stroke-width="1.5"></path><path d="M-95.81 651.77L231.7 674.88" stroke="hsl(228.5, 77.2%, 51.5%)" stroke-width="1.5"></path><path d="M-95.81 651.77L214.33 540.76" stroke="hsl(228.5, 77.2%, 51.5%)" stroke-width="1.5"></path><path d="M-95.81 651.77L365.09 524.15" stroke="hsl(228.5, 77.2%, 51.5%)" stroke-width="1.5"></path><path d="M-95.81 651.77L391.64 677.62" stroke="hsl(228.5, 77.2%, 51.5%)" stroke-width="1.5"></path><path d="M55 526.35L55 526.35" stroke="hsl(228.5, 77.2%, 51.5%)" stroke-width="1.5"></path><path d="M55 526.35L105.19 641.23" stroke="hsl(228.5, 77.2%, 51.5%)" stroke-width="1.5"></path><path d="M55 526.35L214.33 540.76" stroke="hsl(228.5, 77.2%, 51.5%)" stroke-width="1.5"></path><path d="M105.19 641.23L105.19 641.23" stroke="hsl(228.5, 77.2%, 51.5%)" stroke-width="1.5"></path><path d="M105.19 641.23L231.7 674.88" stroke="hsl(228.5, 77.2%, 51.5%)" stroke-width="1.5"></path><path d="M214.33 540.76L214.33 540.76" stroke="hsl(228.5, 77.2%, 51.5%)" stroke-width="1.5"></path><path d="M214.33 540.76L231.7 674.88" stroke="hsl(228.5, 77.2%, 51.5%)" stroke-width="1.5"></path><path d="M214.33 540.76L105.19 641.23" stroke="hsl(228.5, 77.2%, 51.5%)" stroke-width="1.5"></path><path d="M214.33 540.76L365.09 524.15" stroke="hsl(228.5, 77.2%, 51.5%)" stroke-width="1.5"></path><path d="M231.7 674.88L231.7 674.88" stroke="hsl(228.5, 77.2%, 51.5%)" stroke-width="1.5"></path><path d="M365.09 524.15L365.09 524.15" stroke="hsl(228.5, 77.2%, 51.5%)" stroke-width="1.5"></path><path d="M365.09 524.15L391.64 677.62" stroke="hsl(228.5, 77.2%, 51.5%)" stroke-width="1.5"></path><path d="M365.09 524.15L558.11 547.08" stroke="hsl(228.5, 77.2%, 51.5%)" stroke-width="1.5"></path><path d="M391.64 677.62L391.64 677.62" stroke="hsl(228.5, 77.2%, 51.5%)" stroke-width="1.5"></path><path d="M391.64 677.62L231.7 674.88" stroke="hsl(228.5, 77.2%, 51.5%)" stroke-width="1.5"></path><path d="M391.64 677.62L558.11 547.08" stroke="hsl(228.5, 77.2%, 51.5%)" stroke-width="1.5"></path><path d="M391.64 677.62L214.33 540.76" stroke="hsl(228.5, 77.2%, 51.5%)" stroke-width="1.5"></path><path d="M558.11 547.08L558.11 547.08" stroke="hsl(228.5, 77.2%, 51.5%)" stroke-width="1.5"></path><path d="M558.11 547.08L666.73 641.86" stroke="hsl(228.5, 77.2%, 51.5%)" stroke-width="1.5"></path><path d="M675.97 405.31L675.97 405.31" stroke="hsl(228.5, 77.2%, 51.5%)" stroke-width="1.5"></path><path d="M675.97 405.31L814.72 355.67" stroke="hsl(228.5, 77.2%, 51.5%)" stroke-width="1.5"></path><path d="M675.97 405.31L820.49 516.02" stroke="hsl(228.5, 77.2%, 51.5%)" stroke-width="1.5"></path><path d="M666.73 641.86L666.73 641.86" stroke="hsl(228.5, 77.2%, 51.5%)" stroke-width="1.5"></path><path d="M666.73 641.86L665.89 515.77" stroke="hsl(228.5, 77.2%, 51.5%)" stroke-width="1.5"></path><path d="M666.73 641.86L820.49 516.02" stroke="hsl(228.5, 77.2%, 51.5%)" stroke-width="1.5"></path><path d="M666.73 641.86L675.97 405.31" stroke="hsl(228.5, 77.2%, 51.5%)" stroke-width="1.5"></path><path d="M814.72 355.67L814.72 355.67" stroke="hsl(228.5, 77.2%, 51.5%)" stroke-width="1.5"></path><path d="M814.72 355.67L820.49 516.02" stroke="hsl(228.5, 77.2%, 51.5%)" stroke-width="1.5"></path><path d="M820.49 516.02L820.49 516.02" stroke="hsl(228.5, 77.2%, 51.5%)" stroke-width="1.5"></path><path d="M820.49 516.02L960.88 517.22" stroke="hsl(228.5, 77.2%, 51.5%)" stroke-width="1.5"></path><path d="M820.49 516.02L665.89 515.77" stroke="hsl(228.5, 77.2%, 51.5%)" stroke-width="1.5"></path><path d="M960.88 517.22L960.88 517.22" stroke="hsl(228.5, 77.2%, 51.5%)" stroke-width="1.5"></path><path d="M960.88 517.22L950.5 658.46" stroke="hsl(228.5, 77.2%, 51.5%)" stroke-width="1.5"></path><path d="M960.88 517.22L1108.36 539.01" stroke="hsl(228.5, 77.2%, 51.5%)" stroke-width="1.5"></path><path d="M960.88 517.22L814.72 355.67" stroke="hsl(228.5, 77.2%, 51.5%)" stroke-width="1.5"></path><path d="M950.5 658.46L950.5 658.46" stroke="hsl(228.5, 77.2%, 51.5%)" stroke-width="1.5"></path><path d="M1108.36 539.01L1108.36 539.01" stroke="hsl(228.5, 77.2%, 51.5%)" stroke-width="1.5"></path><path d="M1108.36 539.01L1121.45 704.05" stroke="hsl(228.5, 77.2%, 51.5%)" stroke-width="1.5"></path><path d="M1108.36 539.01L950.5 658.46" stroke="hsl(228.5, 77.2%, 51.5%)" stroke-width="1.5"></path><path d="M1121.45 704.05L1121.45 704.05" stroke="hsl(228.5, 77.2%, 51.5%)" stroke-width="1.5"></path><path d="M1121.45 704.05L1241.12 691.49" stroke="hsl(228.5, 77.2%, 51.5%)" stroke-width="1.5"></path><path d="M1121.45 704.05L950.5 658.46" stroke="hsl(228.5, 77.2%, 51.5%)" stroke-width="1.5"></path><path d="M1121.45 704.05L960.88 517.22" stroke="hsl(228.5, 77.2%, 51.5%)" stroke-width="1.5"></path><path d="M1267.37 -57.64L1267.37 -57.64" stroke="hsl(228.5, 77.2%, 51.5%)" stroke-width="1.5"></path><path d="M1267.37 -57.64L1241.08 39.55" stroke="hsl(228.5, 77.2%, 51.5%)" stroke-width="1.5"></path><path d="M1241.08 39.55L1241.08 39.55" stroke="hsl(228.5, 77.2%, 51.5%)" stroke-width="1.5"></path><path d="M1241.08 39.55L1424.03 108.61" stroke="hsl(228.5, 77.2%, 51.5%)" stroke-width="1.5"></path><path d="M1285.79 237.95L1285.79 237.95" stroke="hsl(228.5, 77.2%, 51.5%)" stroke-width="1.5"></path><path d="M1285.79 237.95L1258.61 397.14" stroke="hsl(228.5, 77.2%, 51.5%)" stroke-width="1.5"></path><path d="M1285.79 237.95L1452.76 197.45" stroke="hsl(228.5, 77.2%, 51.5%)" stroke-width="1.5"></path><path d="M1285.79 237.95L1424.03 108.61" stroke="hsl(228.5, 77.2%, 51.5%)" stroke-width="1.5"></path><path d="M1285.79 237.95L1241.08 39.55" stroke="hsl(228.5, 77.2%, 51.5%)" stroke-width="1.5"></path><path d="M1258.61 397.14L1258.61 397.14" stroke="hsl(228.5, 77.2%, 51.5%)" stroke-width="1.5"></path><path d="M1258.61 397.14L1456.9 376.82" stroke="hsl(228.5, 77.2%, 51.5%)" stroke-width="1.5"></path><path d="M1241.12 691.49L1241.12 691.49" stroke="hsl(228.5, 77.2%, 51.5%)" stroke-width="1.5"></path><path d="M1241.12 691.49L1108.36 539.01" stroke="hsl(228.5, 77.2%, 51.5%)" stroke-width="1.5"></path><path d="M1241.12 691.49L1458.91 540.53" stroke="hsl(228.5, 77.2%, 51.5%)" stroke-width="1.5"></path><path d="M1241.12 691.49L950.5 658.46" stroke="hsl(228.5, 77.2%, 51.5%)" stroke-width="1.5"></path><path d="M1456.42 -93.38L1456.42 -93.38" stroke="hsl(228.5, 77.2%, 51.5%)" stroke-width="1.5"></path><path d="M1456.42 -93.38L1593.03 -42.63" stroke="hsl(228.5, 77.2%, 51.5%)" stroke-width="1.5"></path><path d="M1456.42 -93.38L1267.37 -57.64" stroke="hsl(228.5, 77.2%, 51.5%)" stroke-width="1.5"></path><path d="M1456.42 -93.38L1554.72 82.71" stroke="hsl(228.5, 77.2%, 51.5%)" stroke-width="1.5"></path><path d="M1424.03 108.61L1424.03 108.61" stroke="hsl(228.5, 77.2%, 51.5%)" stroke-width="1.5"></path><path d="M1424.03 108.61L1452.76 197.45" stroke="hsl(228.5, 77.2%, 51.5%)" stroke-width="1.5"></path><path d="M1424.03 108.61L1554.72 82.71" stroke="hsl(228.5, 77.2%, 51.5%)" stroke-width="1.5"></path><path d="M1452.76 197.45L1452.76 197.45" stroke="hsl(228.5, 77.2%, 51.5%)" stroke-width="1.5"></path><path d="M1452.76 197.45L1548.77 224.82" stroke="hsl(228.5, 77.2%, 51.5%)" stroke-width="1.5"></path><path d="M1452.76 197.45L1554.72 82.71" stroke="hsl(228.5, 77.2%, 51.5%)" stroke-width="1.5"></path><path d="M1456.9 376.82L1456.9 376.82" stroke="hsl(228.5, 77.2%, 51.5%)" stroke-width="1.5"></path><path d="M1456.9 376.82L1458.91 540.53" stroke="hsl(228.5, 77.2%, 51.5%)" stroke-width="1.5"></path><path d="M1456.9 376.82L1548.77 224.82" stroke="hsl(228.5, 77.2%, 51.5%)" stroke-width="1.5"></path><path d="M1458.91 540.53L1458.91 540.53" stroke="hsl(228.5, 77.2%, 51.5%)" stroke-width="1.5"></path><path d="M1458.91 540.53L1604.81 535.86" stroke="hsl(228.5, 77.2%, 51.5%)" stroke-width="1.5"></path><path d="M1593.03 -42.63L1593.03 -42.63" stroke="hsl(228.5, 77.2%, 51.5%)" stroke-width="1.5"></path><path d="M1593.03 -42.63L1554.72 82.71" stroke="hsl(228.5, 77.2%, 51.5%)" stroke-width="1.5"></path><path d="M1593.03 -42.63L1424.03 108.61" stroke="hsl(228.5, 77.2%, 51.5%)" stroke-width="1.5"></path><path d="M1593.03 -42.63L1548.77 224.82" stroke="hsl(228.5, 77.2%, 51.5%)" stroke-width="1.5"></path><path d="M1554.72 82.71L1554.72 82.71" stroke="hsl(228.5, 77.2%, 51.5%)" stroke-width="1.5"></path><path d="M1554.72 82.71L1548.77 224.82" stroke="hsl(228.5, 77.2%, 51.5%)" stroke-width="1.5"></path><path d="M1554.72 82.71L1456.9 376.82" stroke="hsl(228.5, 77.2%, 51.5%)" stroke-width="1.5"></path><path d="M1548.77 224.82L1548.77 224.82" stroke="hsl(228.5, 77.2%, 51.5%)" stroke-width="1.5"></path><path d="M1548.77 224.82L1424.03 108.61" stroke="hsl(228.5, 77.2%, 51.5%)" stroke-width="1.5"></path><path d="M1604.81 535.86L1604.81 535.86" stroke="hsl(228.5, 77.2%, 51.5%)" stroke-width="1.5"></path><path d="M1604.81 535.86L1605.42 643.41" stroke="hsl(228.5, 77.2%, 51.5%)" stroke-width="1.5"></path><path d="M1605.42 643.41L1605.42 643.41" stroke="hsl(228.5, 77.2%, 51.5%)" stroke-width="1.5"></path><path d="M1605.42 643.41L1458.91 540.53" stroke="hsl(228.5, 77.2%, 51.5%)" stroke-width="1.5"></path><path d="M1605.42 643.41L1559.43 399.2" stroke="hsl(228.5, 77.2%, 51.5%)" stroke-width="1.5"></path><circle r="25" cx="522.81" cy="688.05" fill="url(&quot;#SvgjsRadialGradient1001&quot;)"></circle><circle r="25" cx="665.89" cy="515.77" fill="url(&quot;#SvgjsRadialGradient1001&quot;)"></circle><circle r="25" cx="822.17" cy="690.18" fill="url(&quot;#SvgjsRadialGradient1001&quot;)"></circle><circle r="25" cx="954.01" cy="380.54" fill="url(&quot;#SvgjsRadialGradient1001&quot;)"></circle><circle r="25" cx="1152.12" cy="61.33" fill="url(&quot;#SvgjsRadialGradient1001&quot;)"></circle><circle r="25" cx="1114.77" cy="352.01" fill="url(&quot;#SvgjsRadialGradient1001&quot;)"></circle><circle r="25" cx="1280.05" cy="499.44" fill="url(&quot;#SvgjsRadialGradient1001&quot;)"></circle><circle r="25" cx="1559.43" cy="399.2" fill="url(&quot;#SvgjsRadialGradient1001&quot;)"></circle><circle r="5" cx="-95.81" cy="651.77" fill="#8b9ad9"></circle><circle r="5" cx="55" cy="526.35" fill="#8b9ad9"></circle><circle r="5" cx="105.19" cy="641.23" fill="#8b9ad9"></circle><circle r="5" cx="214.33" cy="540.76" fill="#8b9ad9"></circle><circle r="5" cx="231.7" cy="674.88" fill="#8b9ad9"></circle><circle r="5" cx="365.09" cy="524.15" fill="#8b9ad9"></circle><circle r="5" cx="391.64" cy="677.62" fill="#8b9ad9"></circle><circle r="5" cx="558.11" cy="547.08" fill="#8b9ad9"></circle><circle r="5" cx="675.97" cy="405.31" fill="#8b9ad9"></circle><circle r="5" cx="666.73" cy="641.86" fill="#8b9ad9"></circle><circle r="5" cx="814.72" cy="355.67" fill="#8b9ad9"></circle><circle r="5" cx="820.49" cy="516.02" fill="#8b9ad9"></circle><circle r="5" cx="960.88" cy="517.22" fill="#8b9ad9"></circle><circle r="5" cx="950.5" cy="658.46" fill="#8b9ad9"></circle><circle r="5" cx="1108.36" cy="539.01" fill="#8b9ad9"></circle><circle r="5" cx="1121.45" cy="704.05" fill="#8b9ad9"></circle><circle r="5" cx="1267.37" cy="-57.64" fill="#8b9ad9"></circle><circle r="5" cx="1241.08" cy="39.55" fill="#8b9ad9"></circle><circle r="5" cx="1285.79" cy="237.95" fill="#8b9ad9"></circle><circle r="5" cx="1258.61" cy="397.14" fill="#8b9ad9"></circle><circle r="5" cx="1241.12" cy="691.49" fill="#8b9ad9"></circle><circle r="5" cx="1456.42" cy="-93.38" fill="#8b9ad9"></circle><circle r="5" cx="1424.03" cy="108.61" fill="#8b9ad9"></circle><circle r="5" cx="1452.76" cy="197.45" fill="#8b9ad9"></circle><circle r="5" cx="1456.9" cy="376.82" fill="#8b9ad9"></circle><circle r="5" cx="1458.91" cy="540.53" fill="#8b9ad9"></circle><circle r="5" cx="1593.03" cy="-42.63" fill="#8b9ad9"></circle><circle r="5" cx="1554.72" cy="82.71" fill="#8b9ad9"></circle><circle r="5" cx="1548.77" cy="224.82" fill="#8b9ad9"></circle><circle r="5" cx="1604.81" cy="535.86" fill="#8b9ad9"></circle><circle r="5" cx="1605.42" cy="643.41" fill="#8b9ad9"></circle></g><defs><mask id="SvgjsMask1000"><rect width="1440" height="560" fill="#ffffff"></rect></mask><radialGradient id="SvgjsRadialGradient1001"><stop stop-color="#ffffff" offset="0.1"></stop><stop stop-color="#1735b3" offset="0.2"></stop><stop stop-color="rgba(23, 53, 179, 0)" offset="1"></stop></radialGradient></defs></svg>